<svg width="420" height="420" viewBox="0 0 420 420" fill="none" xmlns="http://www.w3.org/2000/svg">
<g clip-path="url(#clip0)">
<path d="M209.92 0C94.72 0 0 94.72 0 209.92C0 325.12 94.72 419.84 209.92 419.84C325.12 419.84 419.84 325.12 419.84 209.92C419.84 94.72 325.12 0 209.92 0ZM308.224 229.376H229.376V308.224C229.376 319.488 220.672 327.68 209.92 327.68C199.168 327.68 190.464 318.976 190.464 308.224V229.376H111.616C100.352 229.376 92.16 220.672 92.16 209.92C92.16 199.168 100.352 190.464 111.616 190.464H190.464V111.616C190.464 100.352 199.168 92.16 209.92 92.16C220.672 92.16 229.376 100.864 229.376 111.616V190.464H308.224C319.488 190.464 327.68 199.168 327.68 209.92C327.68 220.672 318.976 229.376 308.224 229.376Z" fill="#686769"/>
</g>
<defs>
<clipPath id="clip0">
<rect width="419.84" height="419.84" fill="white"/>
</clipPath>
</defs>
</svg>
