<svg width="512" height="512" viewBox="0 0 512 512" fill="none" xmlns="http://www.w3.org/2000/svg">
<g clip-path="url(#clip0)">
<path d="M145.454 209.709L249.289 483.58H261.634L365.468 209.709H145.454Z" fill="#07A1DD"/>
<path d="M232.607 472.455C236.942 477.341 242.777 480.382 248.982 481.587L145.147 207.716L0.0149197 162C0.67592 166.906 -15.0101 143.697 232.607 472.455Z" fill="#3E8533"/>
<path d="M51.695 180.177L0.322026 163.995C0.983026 168.9 -14.702 145.691 232.914 474.448C236.124 478.066 240.159 480.667 244.556 482.265L51.695 180.177Z" fill="#5BB12F"/>
<path d="M86.074 51.099L145.454 209.71L255.461 84.212L88.081 50.1021C87.354 50.4181 86.681 50.753 86.074 51.099Z" fill="#E95534"/>
<path d="M365.468 209.71L261.634 483.58C267.839 482.375 273.673 479.334 278.009 474.448C342.403 389.156 511.362 165.658 511.872 163.594L365.468 209.71Z" fill="#046DA8"/>
<path d="M365.468 209.71L424.829 51.15C424.129 50.752 423.433 50.415 422.755 50.12L255.461 84.212L365.468 209.71Z" fill="#A32621"/>
<path d="M145.454 209.709H365.468L255.461 84.212L145.454 209.709Z" fill="#C22F29"/>
<path d="M86.0739 50C82.1579 52.227 81.5539 53.544 75.3979 61.438C-4.74311 164.207 -0.551113 156.437 0.321887 162.895L145.454 208.61L86.0739 50Z" fill="#E95534"/>
<path d="M51.695 180.177L87.063 53.74L86.074 51.098C82.159 53.325 81.554 54.642 75.398 62.536C-4.74404 165.306 -0.551044 157.536 0.320956 163.994L51.695 180.177Z" fill="#ED7736"/>
<path d="M365.468 209.71L511.871 163.595C512.284 161.446 511.662 160.173 510.621 158.839C438.018 65.634 427.949 51.909 424.829 51.15L365.468 209.71Z" fill="#DF425D"/>
<path d="M255.461 84.212L422.756 50.12C419.235 48.593 416.429 48.372 416.323 48.353L281.494 30.193C239.075 24.479 220.793 33.116 94.2471 48.401C94.0521 48.443 91.3321 48.688 88.0811 50.103L255.461 84.212Z" fill="#FACA3C"/>
</g>
<defs>
<clipPath id="clip0">
<rect width="512" height="512" fill="white"/>
</clipPath>
</defs>
</svg>
