<svg width="583" height="238" viewBox="0 0 583 238" fill="none" xmlns="http://www.w3.org/2000/svg">
<path d="M457.5 0C388.628 0 332 53.6951 332 119C332 184.305 388.628 238 457.5 238C526.372 238 583 184.305 583 119C583 53.6951 526.372 0 457.5 0ZM516.271 130.029H469.132V174.727C469.132 181.112 463.928 185.756 457.5 185.756C451.072 185.756 445.868 180.822 445.868 174.727V130.029H398.729C391.995 130.029 387.098 125.095 387.098 119C387.098 112.905 391.995 107.971 398.729 107.971H445.868V63.2732C445.868 56.8878 451.072 52.2439 457.5 52.2439C463.928 52.2439 469.132 57.178 469.132 63.2732V107.971H516.271C523.005 107.971 527.902 112.905 527.902 119C527.902 125.095 522.699 130.029 516.271 130.029Z" fill="#686769"/>
<path d="M84.15 189C81.95 185.3 79.4 181.15 76.5 176.55C73.7 171.95 70.65 167.2 67.35 162.3C64.05 157.3 60.6 152.25 57 147.15C53.5 142.05 50 137.15 46.5 132.45C43 127.65 39.6 123.15 36.3 118.95C33 114.75 29.95 111.05 27.15 107.85V189H12.9V85.05H24.45C29.15 90.05 34.15 95.9 39.45 102.6C44.85 109.2 50.15 116.05 55.35 123.15C60.65 130.15 65.6 137.05 70.2 143.85C74.9 150.65 78.85 156.7 82.05 162V85.05H96.3V189H84.15ZM116.781 150.15C116.781 143.25 117.781 137.25 119.781 132.15C121.781 126.95 124.431 122.65 127.731 119.25C131.031 115.85 134.831 113.3 139.131 111.6C143.431 109.9 147.831 109.05 152.331 109.05C162.831 109.05 170.881 112.35 176.481 118.95C182.081 125.45 184.881 135.4 184.881 148.8C184.881 149.4 184.881 150.2 184.881 151.2C184.881 152.1 184.831 152.95 184.731 153.75H131.331C131.931 161.85 134.281 168 138.381 172.2C142.481 176.4 148.881 178.5 157.581 178.5C162.481 178.5 166.581 178.1 169.881 177.3C173.281 176.4 175.831 175.55 177.531 174.75L179.481 186.45C177.781 187.35 174.781 188.3 170.481 189.3C166.281 190.3 161.481 190.8 156.081 190.8C149.281 190.8 143.381 189.8 138.381 187.8C133.481 185.7 129.431 182.85 126.231 179.25C123.031 175.65 120.631 171.4 119.031 166.5C117.531 161.5 116.781 156.05 116.781 150.15ZM170.331 142.5C170.431 136.2 168.831 131.05 165.531 127.05C162.331 122.95 157.881 120.9 152.181 120.9C148.981 120.9 146.131 121.55 143.631 122.85C141.231 124.05 139.181 125.65 137.481 127.65C135.781 129.65 134.431 131.95 133.431 134.55C132.531 137.15 131.931 139.8 131.631 142.5H170.331ZM268.67 189C265.87 181.8 262.87 173.6 259.67 164.4C256.57 155.1 253.72 145.45 251.12 135.45C248.52 145.45 245.67 155.1 242.57 164.4C239.47 173.6 236.52 181.8 233.72 189H221.57C216.97 178.7 212.47 166.95 208.07 153.75C203.67 140.55 199.52 126.3 195.62 111H210.62C211.62 115.7 212.82 120.8 214.22 126.3C215.62 131.8 217.07 137.3 218.57 142.8C220.17 148.3 221.82 153.6 223.52 158.7C225.22 163.8 226.82 168.25 228.32 172.05C230.02 167.35 231.67 162.4 233.27 157.2C234.97 151.9 236.57 146.6 238.07 141.3C239.57 135.9 240.97 130.65 242.27 125.55C243.67 120.35 244.87 115.5 245.87 111H257.42C258.32 115.5 259.42 120.35 260.72 125.55C262.02 130.65 263.42 135.9 264.92 141.3C266.42 146.6 267.97 151.9 269.57 157.2C271.27 162.4 272.97 167.35 274.67 172.05C276.17 168.25 277.72 163.8 279.32 158.7C281.02 153.6 282.67 148.3 284.27 142.8C285.87 137.3 287.37 131.8 288.77 126.3C290.17 120.8 291.37 115.7 292.37 111H306.77C302.87 126.3 298.72 140.55 294.32 153.75C289.92 166.95 285.42 178.7 280.82 189H268.67Z" fill="#686769"/>
</svg>
