<svg width="495" height="495" viewBox="0 0 495 495" fill="none" xmlns="http://www.w3.org/2000/svg">
<g clip-path="url(#clip0)">
<path d="M110.323 265.679L328.305 485.584C333.347 490.674 340.095 493.496 347.303 493.528C354.511 493.559 361.283 490.797 366.369 485.751L382.564 469.703C393.102 459.245 393.177 442.173 382.731 431.639L199.686 246.976L384.554 63.7273C389.641 58.6817 392.466 51.938 392.498 44.7341C392.53 37.5222 389.763 30.7539 384.722 25.6597L368.669 9.4729C363.623 4.38265 356.88 1.56096 349.672 1.52924C342.464 1.49752 335.691 4.25974 330.605 9.3054L110.491 227.483C105.393 232.545 102.575 239.32 102.559 246.536C102.511 253.78 105.269 260.576 110.323 265.679Z" fill="#686769"/>
</g>
<defs>
<clipPath id="clip0">
<rect width="492.004" height="492.004" fill="white" transform="translate(491.999 494.164) rotate(-179.748)"/>
</clipPath>
</defs>
</svg>
