<svg width="2019" height="512" viewBox="0 0 2019 512" fill="none" xmlns="http://www.w3.org/2000/svg">
<g clip-path="url(#clip0)">
<path d="M145.454 209.709L249.289 483.58H261.634L365.468 209.709H145.454Z" fill="#07A1DD"/>
<path d="M232.607 472.455C236.942 477.341 242.777 480.382 248.982 481.587L145.147 207.716L0.0149197 162C0.67592 166.906 -15.0101 143.697 232.607 472.455Z" fill="#3E8533"/>
<path d="M51.695 180.177L0.321995 163.995C0.982995 168.9 -14.702 145.691 232.914 474.448C236.124 478.066 240.159 480.667 244.556 482.265L51.695 180.177Z" fill="#5BB12F"/>
<path d="M86.074 51.099L145.454 209.71L255.461 84.212L88.081 50.1021C87.354 50.4181 86.681 50.753 86.074 51.099Z" fill="#E95534"/>
<path d="M365.468 209.71L261.634 483.58C267.839 482.375 273.673 479.334 278.009 474.448C342.403 389.156 511.362 165.658 511.872 163.594L365.468 209.71Z" fill="#046DA8"/>
<path d="M365.468 209.71L424.829 51.15C424.129 50.752 423.433 50.415 422.755 50.12L255.461 84.212L365.468 209.71Z" fill="#A32621"/>
<path d="M145.454 209.709H365.468L255.461 84.212L145.454 209.709Z" fill="#C22F29"/>
<path d="M86.0739 50C82.1579 52.227 81.5539 53.544 75.3979 61.438C-4.74311 164.207 -0.551113 156.437 0.321887 162.895L145.454 208.61L86.0739 50Z" fill="#E95534"/>
<path d="M51.695 180.177L87.063 53.74L86.074 51.098C82.159 53.325 81.554 54.642 75.398 62.536C-4.74401 165.306 -0.551013 157.536 0.320987 163.994L51.695 180.177Z" fill="#ED7736"/>
<path d="M365.468 209.71L511.871 163.595C512.284 161.446 511.662 160.173 510.621 158.839C438.018 65.634 427.949 51.909 424.829 51.15L365.468 209.71Z" fill="#DF425D"/>
<path d="M255.461 84.212L422.756 50.12C419.235 48.593 416.429 48.372 416.323 48.353L281.494 30.193C239.075 24.479 220.793 33.116 94.247 48.401C94.052 48.443 91.332 48.688 88.081 50.103L255.461 84.212Z" fill="#FACA3C"/>
</g>
<path d="M600.725 415.95C596.175 415.95 591.192 415.842 585.775 415.625C580.575 415.408 575.267 415.083 569.85 414.65C564.65 414.217 559.45 413.675 554.25 413.025C549.05 412.375 544.283 411.508 539.95 410.425V192.025C544.283 190.942 549.05 190.075 554.25 189.425C559.45 188.775 564.65 188.233 569.85 187.8C575.267 187.367 580.575 187.042 585.775 186.825C590.975 186.608 595.85 186.5 600.4 186.5C613.4 186.5 625.533 187.475 636.8 189.425C648.283 191.375 658.142 194.733 666.375 199.5C674.825 204.05 681.433 210.117 686.2 217.7C690.967 225.283 693.35 234.6 693.35 245.65C693.35 258 690.425 268.183 684.575 276.2C678.725 284 670.925 289.85 661.175 293.75C674.392 297.65 684.9 303.825 692.7 312.275C700.5 320.725 704.4 332.642 704.4 348.025C704.4 370.558 696.058 387.567 679.375 399.05C662.908 410.317 636.692 415.95 600.725 415.95ZM571.15 309.025V388.325C573.533 388.542 576.35 388.758 579.6 388.975C582.417 389.192 585.667 389.408 589.35 389.625C593.25 389.625 597.692 389.625 602.675 389.625C611.992 389.625 620.767 389.083 629 388C637.45 386.7 644.817 384.533 651.1 381.5C657.383 378.467 662.367 374.242 666.05 368.825C669.95 363.408 671.9 356.583 671.9 348.35C671.9 340.983 670.492 334.808 667.675 329.825C664.858 324.625 660.742 320.508 655.325 317.475C650.125 314.442 643.842 312.275 636.475 310.975C629.108 309.675 620.875 309.025 611.775 309.025H571.15ZM571.15 283.675H604.3C612.1 283.675 619.467 283.133 626.4 282.05C633.333 280.967 639.292 279.017 644.275 276.2C649.475 273.383 653.483 269.7 656.3 265.15C659.333 260.6 660.85 254.858 660.85 247.925C660.85 241.425 659.333 236.008 656.3 231.675C653.267 227.125 649.042 223.55 643.625 220.95C638.425 218.133 632.25 216.075 625.1 214.775C617.95 213.475 610.367 212.825 602.35 212.825C594.333 212.825 588.05 212.933 583.5 213.15C578.95 213.367 574.833 213.692 571.15 214.125V283.675ZM839.138 418.875C823.321 418.875 808.913 416.275 795.913 411.075C782.913 405.875 771.755 398.292 762.438 388.325C753.121 378.358 745.863 366.117 740.663 351.6C735.68 336.867 733.188 320.075 733.188 301.225C733.188 282.375 736.005 265.692 741.638 251.175C747.488 236.442 755.288 224.092 765.038 214.125C774.788 204.158 786.163 196.575 799.163 191.375C812.163 186.175 826.03 183.575 840.763 183.575C850.08 183.575 858.421 184.225 865.788 185.525C873.371 186.825 879.871 188.342 885.288 190.075C890.921 191.808 895.471 193.542 898.938 195.275C902.405 197.008 904.788 198.308 906.088 199.175L896.988 225.175C895.038 223.875 892.221 222.467 888.538 220.95C884.855 219.433 880.63 217.917 875.863 216.4C871.313 214.883 866.221 213.692 860.588 212.825C855.171 211.742 849.646 211.2 844.013 211.2C832.096 211.2 821.371 213.258 811.838 217.375C802.305 221.492 794.18 227.45 787.463 235.25C780.746 243.05 775.546 252.583 771.863 263.85C768.396 274.9 766.663 287.358 766.663 301.225C766.663 314.658 768.18 326.9 771.213 337.95C774.463 349 779.23 358.533 785.513 366.55C791.796 374.35 799.596 380.417 808.913 384.75C818.446 389.083 829.496 391.25 842.063 391.25C856.58 391.25 868.605 389.733 878.138 386.7C887.671 383.667 894.821 380.958 899.588 378.575L907.713 404.575C906.196 405.658 903.488 407.067 899.588 408.8C895.688 410.317 890.813 411.833 884.963 413.35C879.113 414.867 872.288 416.167 864.488 417.25C856.688 418.333 848.238 418.875 839.138 418.875ZM992.576 392.225C999.726 392.225 1006.01 392.117 1011.43 391.9C1017.06 391.467 1021.72 390.817 1025.4 389.95V339.575C1023.23 338.492 1019.66 337.625 1014.68 336.975C1009.91 336.108 1004.06 335.675 997.126 335.675C992.576 335.675 987.701 336 982.501 336.65C977.518 337.3 972.859 338.708 968.526 340.875C964.409 342.825 960.943 345.642 958.126 349.325C955.309 352.792 953.901 357.45 953.901 363.3C953.901 374.133 957.368 381.717 964.301 386.05C971.234 390.167 980.659 392.225 992.576 392.225ZM989.976 240.775C1002.11 240.775 1012.29 242.4 1020.53 245.65C1028.98 248.683 1035.69 253.125 1040.68 258.975C1045.88 264.608 1049.56 271.433 1051.73 279.45C1053.89 287.25 1054.98 295.917 1054.98 305.45V411.075C1052.38 411.508 1048.69 412.158 1043.93 413.025C1039.38 413.675 1034.18 414.325 1028.33 414.975C1022.48 415.625 1016.08 416.167 1009.15 416.6C1002.43 417.25 995.718 417.575 989.001 417.575C979.468 417.575 970.693 416.6 962.676 414.65C954.659 412.7 947.726 409.667 941.876 405.55C936.026 401.217 931.476 395.583 928.226 388.65C924.976 381.717 923.351 373.375 923.351 363.625C923.351 354.308 925.193 346.292 928.876 339.575C932.776 332.858 937.976 327.442 944.476 323.325C950.976 319.208 958.559 316.175 967.226 314.225C975.893 312.275 984.993 311.3 994.526 311.3C997.559 311.3 1000.7 311.517 1003.95 311.95C1007.2 312.167 1010.23 312.6 1013.05 313.25C1016.08 313.683 1018.68 314.117 1020.85 314.55C1023.02 314.983 1024.53 315.308 1025.4 315.525V307.075C1025.4 302.092 1024.86 297.217 1023.78 292.45C1022.69 287.467 1020.74 283.133 1017.93 279.45C1015.11 275.55 1011.21 272.517 1006.23 270.35C1001.46 267.967 995.176 266.775 987.376 266.775C977.409 266.775 968.634 267.533 961.051 269.05C953.684 270.35 948.159 271.758 944.476 273.275L940.901 248.25C944.801 246.517 951.301 244.892 960.401 243.375C969.501 241.642 979.359 240.775 989.976 240.775ZM1149.38 417.25C1130.74 416.817 1117.53 412.808 1109.73 405.225C1101.93 397.642 1098.03 385.833 1098.03 369.8V167L1128.25 161.8V364.925C1128.25 369.908 1128.68 374.025 1129.55 377.275C1130.42 380.525 1131.83 383.125 1133.78 385.075C1135.73 387.025 1138.33 388.542 1141.58 389.625C1144.83 390.492 1148.83 391.25 1153.6 391.9L1149.38 417.25ZM1171.62 329.825C1171.62 314.875 1173.78 301.875 1178.12 290.825C1182.45 279.558 1188.19 270.242 1195.34 262.875C1202.49 255.508 1210.73 249.983 1220.04 246.3C1229.36 242.617 1238.89 240.775 1248.64 240.775C1271.39 240.775 1288.83 247.925 1300.97 262.225C1313.1 276.308 1319.17 297.867 1319.17 326.9C1319.17 328.2 1319.17 329.933 1319.17 332.1C1319.17 334.05 1319.06 335.892 1318.84 337.625H1203.14C1204.44 355.175 1209.53 368.5 1218.42 377.6C1227.3 386.7 1241.17 391.25 1260.02 391.25C1270.63 391.25 1279.52 390.383 1286.67 388.65C1294.03 386.7 1299.56 384.858 1303.24 383.125L1307.47 408.475C1303.78 410.425 1297.28 412.483 1287.97 414.65C1278.87 416.817 1268.47 417.9 1256.77 417.9C1242.03 417.9 1229.25 415.733 1218.42 411.4C1207.8 406.85 1199.03 400.675 1192.09 392.875C1185.16 385.075 1179.96 375.867 1176.49 365.25C1173.24 354.417 1171.62 342.608 1171.62 329.825ZM1287.64 313.25C1287.86 299.6 1284.39 288.442 1277.24 279.775C1270.31 270.892 1260.67 266.45 1248.32 266.45C1241.38 266.45 1235.21 267.858 1229.79 270.675C1224.59 273.275 1220.15 276.742 1216.47 281.075C1212.78 285.408 1209.86 290.392 1207.69 296.025C1205.74 301.658 1204.44 307.4 1203.79 313.25H1287.64ZM1356.09 249.875C1363.02 248.142 1372.23 246.3 1383.71 244.35C1395.19 242.4 1408.41 241.425 1423.36 241.425C1436.79 241.425 1447.95 243.375 1456.84 247.275C1465.72 250.958 1472.76 256.267 1477.96 263.2C1483.38 269.917 1487.17 278.042 1489.34 287.575C1491.5 297.108 1492.59 307.617 1492.59 319.1V414H1462.36V325.6C1462.36 315.2 1461.6 306.317 1460.09 298.95C1458.79 291.583 1456.51 285.625 1453.26 281.075C1450.01 276.525 1445.68 273.275 1440.26 271.325C1434.84 269.158 1428.13 268.075 1420.11 268.075C1416.86 268.075 1413.5 268.183 1410.04 268.4C1406.57 268.617 1403.21 268.942 1399.96 269.375C1396.93 269.592 1394.11 269.917 1391.51 270.35C1389.13 270.783 1387.39 271.108 1386.31 271.325V414H1356.09V249.875ZM1645.41 280.75C1641.72 277.717 1636.42 274.792 1629.48 271.975C1622.55 269.158 1614.97 267.75 1606.73 267.75C1598.07 267.75 1590.59 269.375 1584.31 272.625C1578.24 275.658 1573.26 279.992 1569.36 285.625C1565.46 291.042 1562.64 297.542 1560.91 305.125C1559.17 312.708 1558.31 320.833 1558.31 329.5C1558.31 349.217 1563.18 364.492 1572.93 375.325C1582.68 385.942 1595.68 391.25 1611.93 391.25C1620.17 391.25 1626.99 390.925 1632.41 390.275C1638.04 389.408 1642.37 388.542 1645.41 387.675V280.75ZM1645.41 167L1675.63 161.8V409.125C1668.7 411.075 1659.82 413.025 1648.98 414.975C1638.15 416.925 1625.69 417.9 1611.61 417.9C1598.61 417.9 1586.91 415.842 1576.51 411.725C1566.11 407.608 1557.22 401.758 1549.86 394.175C1542.49 386.592 1536.75 377.383 1532.63 366.55C1528.73 355.5 1526.78 343.15 1526.78 329.5C1526.78 316.5 1528.41 304.583 1531.66 293.75C1535.12 282.917 1540.11 273.6 1546.61 265.8C1553.11 258 1561.02 251.933 1570.33 247.6C1579.87 243.267 1590.7 241.1 1602.83 241.1C1612.58 241.1 1621.14 242.4 1628.51 245C1636.09 247.6 1641.72 250.092 1645.41 252.475V167ZM1778.29 392.225C1785.44 392.225 1791.72 392.117 1797.14 391.9C1802.77 391.467 1807.43 390.817 1811.11 389.95V339.575C1808.95 338.492 1805.37 337.625 1800.39 336.975C1795.62 336.108 1789.77 335.675 1782.84 335.675C1778.29 335.675 1773.41 336 1768.21 336.65C1763.23 337.3 1758.57 338.708 1754.24 340.875C1750.12 342.825 1746.66 345.642 1743.84 349.325C1741.02 352.792 1739.61 357.45 1739.61 363.3C1739.61 374.133 1743.08 381.717 1750.01 386.05C1756.95 390.167 1766.37 392.225 1778.29 392.225ZM1775.69 240.775C1787.82 240.775 1798.01 242.4 1806.24 245.65C1814.69 248.683 1821.41 253.125 1826.39 258.975C1831.59 264.608 1835.27 271.433 1837.44 279.45C1839.61 287.25 1840.69 295.917 1840.69 305.45V411.075C1838.09 411.508 1834.41 412.158 1829.64 413.025C1825.09 413.675 1819.89 414.325 1814.04 414.975C1808.19 415.625 1801.8 416.167 1794.86 416.6C1788.15 417.25 1781.43 417.575 1774.71 417.575C1765.18 417.575 1756.41 416.6 1748.39 414.65C1740.37 412.7 1733.44 409.667 1727.59 405.55C1721.74 401.217 1717.19 395.583 1713.94 388.65C1710.69 381.717 1709.06 373.375 1709.06 363.625C1709.06 354.308 1710.91 346.292 1714.59 339.575C1718.49 332.858 1723.69 327.442 1730.19 323.325C1736.69 319.208 1744.27 316.175 1752.94 314.225C1761.61 312.275 1770.71 311.3 1780.24 311.3C1783.27 311.3 1786.41 311.517 1789.66 311.95C1792.91 312.167 1795.95 312.6 1798.76 313.25C1801.8 313.683 1804.4 314.117 1806.56 314.55C1808.73 314.983 1810.25 315.308 1811.11 315.525V307.075C1811.11 302.092 1810.57 297.217 1809.49 292.45C1808.41 287.467 1806.46 283.133 1803.64 279.45C1800.82 275.55 1796.92 272.517 1791.94 270.35C1787.17 267.967 1780.89 266.775 1773.09 266.775C1763.12 266.775 1754.35 267.533 1746.76 269.05C1739.4 270.35 1733.87 271.758 1730.19 273.275L1726.61 248.25C1730.51 246.517 1737.01 244.892 1746.11 243.375C1755.21 241.642 1765.07 240.775 1775.69 240.775ZM1946.79 241.425C1949.39 241.425 1952.31 241.642 1955.56 242.075C1959.03 242.292 1962.39 242.725 1965.64 243.375C1968.89 243.808 1971.81 244.35 1974.41 245C1977.23 245.433 1979.29 245.867 1980.59 246.3L1975.39 272.625C1973.01 271.758 1969 270.783 1963.36 269.7C1957.95 268.4 1950.91 267.75 1942.24 267.75C1936.61 267.75 1930.97 268.4 1925.34 269.7C1919.92 270.783 1916.35 271.542 1914.61 271.975V414H1884.39V252.15C1891.54 249.55 1900.42 247.167 1911.04 245C1921.66 242.617 1933.57 241.425 1946.79 241.425Z" fill="#686769"/>
<defs>
<clipPath id="clip0">
<rect width="512" height="512" fill="white"/>
</clipPath>
</defs>
</svg>
